<?xml version="1.0" encoding="UTF-8" standalone="no"?>
<svg width="16px" height="23px" viewBox="0 0 16 23" version="1.1" xmlns="http://www.w3.org/2000/svg" xmlns:xlink="http://www.w3.org/1999/xlink" xmlns:sketch="http://www.bohemiancoding.com/sketch/ns">
    <!-- Generator: Sketch Beta 3.4 (15009) - http://www.bohemiancoding.com/sketch -->
    <title>Slice 1</title>
    <desc>Created with Sketch Beta.</desc>
    <defs></defs>
    <g id="Page-1" stroke="none" stroke-width="1" fill="none" fill-rule="evenodd" sketch:type="MSPage">
        <g id="arrow-right" sketch:type="MSLayerGroup" fill="#FFFFFF">
            <g id="Page-12" sketch:type="MSShapeGroup">
                <g id="Group-1218">
                    <path d="M3.1093,22.1282 L1.9833,22.1282 C0.9723,22.1282 0.1443,21.3012 0.1443,20.2902 L0.1443,19.1632 C0.1443,18.1522 0.9723,17.3252 1.9833,17.3252 L3.1093,17.3252 C4.1203,17.3252 4.9473,18.1522 4.9473,19.1632 L4.9473,20.2902 C4.9473,21.3012 4.1203,22.1282 3.1093,22.1282" id="Fill-1208"></path>
                    <path d="M8.6181,17.9778 L7.4921,17.9778 C6.4811,17.9778 5.6531,17.1508 5.6531,16.1398 L5.6531,15.0128 C5.6531,14.0018 6.4811,13.1748 7.4921,13.1748 L8.6181,13.1748 C9.6291,13.1748 10.4561,14.0018 10.4561,15.0128 L10.4561,16.1398 C10.4561,17.1508 9.6291,17.9778 8.6181,17.9778" id="Fill-1210"></path>
                    <path d="M14.1259,13.8274 L12.9999,13.8274 C11.9889,13.8274 11.1609,13.0004 11.1609,11.9894 L11.1609,10.8624 C11.1609,9.8514 11.9889,9.0244 12.9999,9.0244 L14.1259,9.0244 C15.1379,9.0244 15.9639,9.8514 15.9639,10.8624 L15.9639,11.9894 C15.9639,13.0004 15.1379,13.8274 14.1259,13.8274" id="Fill-1212"></path>
                    <path d="M7.4912,9.677 L8.6172,9.677 C9.6292,9.677 10.4562,8.85 10.4562,7.839 L10.4562,6.712 C10.4562,5.701 9.6292,4.874 8.6172,4.874 L7.4912,4.874 C6.4802,4.874 5.6532,5.701 5.6532,6.712 L5.6532,7.839 C5.6532,8.85 6.4802,9.677 7.4912,9.677" id="Fill-1214"></path>
                    <path d="M1.9829,5.5266 L3.1089,5.5266 C4.1199,5.5266 4.9479,4.6996 4.9479,3.6886 L4.9479,2.5616 C4.9479,1.5506 4.1199,0.7236 3.1089,0.7236 L1.9829,0.7236 C0.9719,0.7236 0.1449,1.5506 0.1449,2.5616 L0.1449,3.6886 C0.1449,4.6996 0.9719,5.5266 1.9829,5.5266" id="Fill-1216"></path>
                </g>
            </g>
        </g>
    </g>
</svg>