<?xml version="1.0" encoding="UTF-8" standalone="no"?>
<svg width="200px" height="108px" viewBox="0 0 200 108" version="1.1" xmlns="http://www.w3.org/2000/svg" xmlns:xlink="http://www.w3.org/1999/xlink" xmlns:sketch="http://www.bohemiancoding.com/sketch/ns">
    <!-- Generator: Sketch Beta 3.3.3 (12072) - http://www.bohemiancoding.com/sketch -->
    <title>makerbase-mark-white</title>
    <desc>Created with Sketch Beta.</desc>
    <defs></defs>
    <g id="Page-1" stroke="none" stroke-width="1" fill="none" fill-rule="evenodd" sketch:type="MSPage">
        <g sketch:type="MSLayerGroup" fill="#FFFFFF">
            <path d="M64.197,0 L92.084,0 L72.709,51.708 L21,51.708 L31.449,23.822 C32.984,19.563 43.611,0 64.197,0" id="Fill-356" sketch:type="MSShapeGroup"></path>
            <path d="M71.083,56 L62.157,79.822 C59.83,85.604 50.73,107.708 27.307,107.708 L0,107.708 L19.375,56 L71.083,56 L71.083,56 Z" id="Fill-357" sketch:type="MSShapeGroup"></path>
            <path d="M139.504,25.564 L129.708,51.708 L78,51.708 L97.375,0 L127.228,0 C128.497,0 134.734,1.164 139.333,7.961 C143.933,14.759 139.504,25.564 139.504,25.564" id="Fill-358" sketch:type="MSShapeGroup"></path>
            <path d="M128.470092,56 L109.095092,107.708 L79.691092,107.708 C79.213092,107.708 71.2090923,106.678 66.6170923,98.842 C63.8260923,94.08 65.3720923,87.335 65.9500923,85.246 C66.2420923,84.193 66.5850923,83.16 66.9660923,82.144 L76.762092,56 L128.470092,56 L128.470092,56 Z" id="Fill-359" sketch:type="MSShapeGroup"></path>
            <path d="M183.262,0 C187.912,0 192.68,2.519 195.978,6.09 C198.79,9.135 199.966,12.982 199.748,16.822 C199.609,19.258 198.989,21.604 198.158,23.822 C198.155,23.829 187.709,51.708 187.709,51.708 L136,51.708 L155.375,0 L183.262,0 L183.262,0 Z" id="Fill-360" sketch:type="MSShapeGroup"></path>
            <path d="M186.240488,56 L166.865488,107.708 L152.723488,107.708 L143.782488,107.708 C141.024488,107.708 138.451488,107.845 135.696488,107.055 C133.827488,106.519 131.976488,105.806 130.262488,104.805 C127.357488,103.109 125.057488,100.579 123.942488,97.439 C121.841488,91.524 123.634488,85.085 125.606488,79.822 L134.532488,56 L186.240488,56 L186.240488,56 Z" id="Fill-361" sketch:type="MSShapeGroup"></path>
        </g>
    </g>
</svg>