<?xml version="1.0" encoding="UTF-8" standalone="no"?>
<svg width="256px" height="256px" viewBox="0 0 256 256" version="1.1" xmlns="http://www.w3.org/2000/svg" xmlns:xlink="http://www.w3.org/1999/xlink" xmlns:sketch="http://www.bohemiancoding.com/sketch/ns">
    <!-- Generator: Sketch Beta 3.3.3 (12072) - http://www.bohemiancoding.com/sketch -->
    <title>Slice 1</title>
    <desc>Created with Sketch Beta.</desc>
    <defs></defs>
    <g id="Page-1" stroke="none" stroke-width="1" fill="none" fill-rule="evenodd" sketch:type="MSPage">
        <g id="makerbase-logo-square" sketch:type="MSLayerGroup">
            <g id="Page-1" sketch:type="MSShapeGroup">
                <path d="M256,256 L0,256 L0,0 L256,0 L256,256 L256,256 Z" id="Stroke-277"></path>
                <path d="M92.197,74 L120.084,74 L100.709,125.708 L49,125.708 L59.449,97.822 C60.984,93.563 71.611,74 92.197,74" id="Fill-278" fill="#C73A09"></path>
                <path d="M99.083,130 L90.157,153.822 C87.83,159.605 78.73,181.708 55.307,181.708 L28,181.708 L47.375,130 L99.083,130 L99.083,130 Z" id="Fill-279" fill="#A882D4"></path>
                <path d="M168.504,99.564 L158.708,125.708 L107,125.708 L126.375,74 L156.228,74 C157.497,74 163.734,75.164 168.333,81.961 C172.933,88.759 168.504,99.564 168.504,99.564" id="Fill-280" fill="#FFAD4E"></path>
                <path d="M156.470092,130 L137.095092,181.708 L107.691092,181.708 C107.213092,181.708 99.209092,180.678 94.6170923,172.842 C91.8260923,168.08 93.3720923,161.335 93.9500923,159.246 C94.2420923,158.193 94.5850923,157.16 94.9660923,156.144 L104.762092,130 L156.470092,130 L156.470092,130 Z" id="Fill-281" fill="#41CCA5"></path>
                <path d="M211.262,74 C215.912,74 220.68,76.519 223.978,80.09 C226.79,83.135 227.966,86.982 227.748,90.822 C227.609,93.258 226.989,95.604 226.158,97.822 C226.155,97.829 215.709,125.708 215.709,125.708 L164,125.708 L183.375,74 L211.262,74 L211.262,74 Z" id="Fill-282" fill="#E776A7"></path>
                <path d="M214.240488,130 L194.865488,181.708 L180.723488,181.708 L171.782488,181.708 C169.024488,181.708 166.451488,181.845 163.696488,181.055 C161.827488,180.519 159.976488,179.806 158.262488,178.805 C155.357488,177.109 153.057488,174.579 151.942488,171.439 C149.841488,165.524 151.634488,159.085 153.606488,153.822 L162.532488,130 L214.240488,130 L214.240488,130 Z" id="Fill-283" fill="#44BBC9"></path>
            </g>
        </g>
    </g>
</svg>