<?xml version="1.0" encoding="UTF-8" standalone="no"?>
<svg width="524px" height="115px" viewBox="0 0 524 115" version="1.1" xmlns="http://www.w3.org/2000/svg" xmlns:xlink="http://www.w3.org/1999/xlink" xmlns:sketch="http://www.bohemiancoding.com/sketch/ns">
    <!-- Generator: Sketch Beta 3.3.3 (12072) - http://www.bohemiancoding.com/sketch -->
    <title>Slice 1</title>
    <desc>Created with Sketch Beta.</desc>
    <defs></defs>
    <g id="Page-1" stroke="none" stroke-width="1" fill="none" fill-rule="evenodd" sketch:type="MSPage">
        <path d="M231.595,78.188 L222,78.188 L222,48.702 L231.302,48.702 L231.302,53.089 C232.59,50.281 235.866,48 239.961,48 C244.407,48 247.391,49.93 248.971,53.089 C250.785,50.164 254.237,48 258.8,48 C265.879,48 269.272,52.856 269.272,59.876 L269.272,78.188 L259.677,78.188 L259.677,61.456 C259.677,58.414 258.39,56.307 255.173,56.307 C252.306,56.307 250.433,58.121 250.433,61.105 L250.433,78.188 L240.839,78.188 L240.839,61.456 C240.839,58.414 239.552,56.307 236.334,56.307 C233.35,56.307 231.595,58.121 231.595,61.397 L231.595,78.188 Z" id="Fill-38" fill="#000000" sketch:type="MSShapeGroup"></path>
        <path d="M295.869,63.445 C295.869,59.116 292.885,55.956 288.673,55.956 C284.519,55.956 281.594,59.174 281.594,63.445 C281.594,67.716 284.519,70.934 288.673,70.934 C292.885,70.934 295.869,67.775 295.869,63.445 M296.045,53.09 L296.045,48.702 L305.464,48.702 L305.464,78.188 L296.22,78.188 L296.22,73.801 C294.582,76.609 291.189,78.891 286.742,78.891 C278.201,78.891 272,72.221 272,63.445 C272,54.67 278.201,48 286.742,48 C291.189,48 294.699,50.106 296.045,53.09" id="Fill-39" fill="#000000" sketch:type="MSShapeGroup"></path>
        <path d="M310,78.708 L310,36 L319.595,36 L319.595,63.497 L328.955,49.222 L339.545,49.222 L329.541,63.906 L340.071,78.708 L328.896,78.708 L319.595,64.725 L319.595,78.708 L310,78.708 Z" id="Fill-40" fill="#000000" sketch:type="MSShapeGroup"></path>
        <path d="M347.419,60.461 L360.232,60.461 C359.764,56.951 357.482,54.669 353.855,54.669 C350.227,54.669 347.945,56.775 347.419,60.461 M360.349,69.003 L369.183,69.003 C367.369,74.561 361.519,78.89 354.147,78.89 C343.85,78.89 338,72.455 338,63.386 C338,54.26 344.553,48 353.738,48 C362.865,48 369.417,53.967 369.417,63.503 L369.417,66.37 L347.419,66.37 C348.004,69.588 349.993,71.928 354.147,71.928 C357.014,71.928 359.237,70.816 360.349,69.003" id="Fill-41" fill="#000000" sketch:type="MSShapeGroup"></path>
        <path d="M391.955,58.537 L390.024,58.537 C384.759,58.537 382.594,60.702 382.594,66.435 L382.594,78.721 L373,78.721 L373,49.235 L382.302,49.235 L382.302,55.085 C383.53,50.346 387.158,49 391.019,49 L391.955,49 L391.955,58.537 Z" id="Fill-42" fill="#000000" sketch:type="MSShapeGroup"></path>
        <path d="M419.869,63.965 C419.869,59.694 416.944,56.476 412.79,56.476 C408.578,56.476 405.594,59.636 405.594,63.965 C405.594,68.295 408.578,71.454 412.79,71.454 C416.944,71.454 419.869,68.236 419.869,63.965 M429.464,63.965 C429.464,72.741 423.263,79.411 414.721,79.411 C410.274,79.411 406.881,77.129 405.243,74.321 L405.243,78.708 L396,78.708 L396,36 L405.594,36 L405.594,53.61 C406.94,50.626 410.274,48.52 414.721,48.52 C423.263,48.52 429.464,55.19 429.464,63.965" id="Fill-43" fill="#000000" sketch:type="MSShapeGroup"></path>
        <path d="M454.869,63.445 C454.869,59.116 451.885,55.956 447.673,55.956 C443.519,55.956 440.594,59.174 440.594,63.445 C440.594,67.716 443.519,70.934 447.673,70.934 C451.885,70.934 454.869,67.775 454.869,63.445 M455.045,53.09 L455.045,48.702 L464.464,48.702 L464.464,78.188 L455.22,78.188 L455.22,73.801 C453.582,76.609 450.189,78.891 445.742,78.891 C437.2,78.891 431,72.221 431,63.445 C431,54.67 437.2,48 445.742,48 C450.189,48 453.699,50.106 455.045,53.09" id="Fill-44" fill="#000000" sketch:type="MSShapeGroup"></path>
        <path d="M474.898,69.003 C475.073,71.109 476.419,72.455 478.993,72.455 C481.158,72.455 482.503,71.285 482.503,69.705 C482.503,68.36 481.743,67.599 480.105,67.189 L476.068,66.136 C470.393,64.732 467.877,62.041 467.877,57.244 C467.877,51.452 472.909,48 478.934,48 C485.546,48 489.232,51.803 489.758,57.185 L481.86,57.185 C481.801,55.898 481.041,54.435 479.11,54.435 C477.414,54.435 476.477,55.371 476.477,56.659 C476.477,57.946 477.297,58.648 478.759,58.999 L483.966,60.403 C488.822,61.69 491.104,64.498 491.104,68.769 C491.104,74.912 485.37,78.891 479.11,78.891 C472.733,78.891 467.643,76.082 467,69.003 L474.898,69.003 Z" id="Fill-45" fill="#000000" sketch:type="MSShapeGroup"></path>
        <path d="M501.419,60.461 L514.232,60.461 C513.764,56.951 511.482,54.669 507.855,54.669 C504.227,54.669 501.945,56.775 501.419,60.461 M514.349,69.003 L523.183,69.003 C521.369,74.561 515.519,78.89 508.147,78.89 C497.85,78.89 492,72.455 492,63.386 C492,54.26 498.553,48 507.738,48 C516.865,48 523.417,53.967 523.417,63.503 L523.417,66.37 L501.419,66.37 C502.004,69.588 503.993,71.928 508.147,71.928 C511.014,71.928 513.237,70.816 514.349,69.003" id="Fill-46" fill="#000000" sketch:type="MSShapeGroup"></path>
        <path d="M67.715,0 L97.228,0 L76.723,54.723 L22,54.723 L33.058,25.211 C34.682,20.703 45.929,0 67.715,0" id="Fill-47" fill="#C73A09" sketch:type="MSShapeGroup"></path>
        <path d="M75.228,60 L65.782,85.211 C63.319,91.331 53.688,114.723 28.899,114.723 L0,114.723 L20.505,60 L75.228,60 Z" id="Fill-48" fill="#A882D4" sketch:type="MSShapeGroup"></path>
        <path d="M148.091,27.055 L137.724,54.723 L83,54.723 L103.505,0 L135.099,0 C136.443,0 143.043,1.232 147.91,8.426 C152.778,15.62 148.091,27.055 148.091,27.055" id="Fill-49" fill="#FFAD4E" sketch:type="MSShapeGroup"></path>
        <path d="M136.170807,60 L115.665807,114.723 L84.5478072,114.723 C84.0418072,114.723 75.5708072,113.633 70.7108072,105.34 C67.7578072,100.301 69.3938072,93.162 70.0058072,90.951 C70.3138072,89.837 70.6778072,88.743 71.0798072,87.668 L81.4478072,60 L136.170807,60 Z" id="Fill-50" fill="#41CCA5" sketch:type="MSShapeGroup"></path>
        <path d="M194.017,0 C198.938,0 203.985,2.666 207.475,6.445 C210.451,9.668 211.696,13.739 211.464,17.803 C211.317,20.381 210.661,22.863 209.781,25.211 C209.779,25.218 198.723,54.723 198.723,54.723 L144,54.723 L164.504,0 L194.017,0 Z" id="Fill-51" fill="#E776A7" sketch:type="MSShapeGroup"></path>
        <path d="M196.928228,60 L176.423228,114.723 L161.456228,114.723 L151.994228,114.723 C149.075228,114.723 146.353228,114.868 143.437228,114.032 C141.459228,113.465 139.500228,112.711 137.686228,111.651 C134.612228,109.856 132.177228,107.178 130.997228,103.855 C128.774228,97.595 130.671228,90.781 132.758228,85.211 L142.205228,60 L196.928228,60 Z" id="Fill-52" fill="#44BBC9" sketch:type="MSShapeGroup"></path>
    </g>
</svg>